<svg fill="#3c3c3c" xmlns="http://www.w3.org/2000/svg" role="img" viewBox="0 0 24 24" preserveAspectRatio="xMidYMid meet"><title id="titleValueSustain">Sustain Value</title><desc id="descValueSustain">Sustain Value</desc><path d="M11.262 18.951a.497.497 0 0 1 .418.494v3.53c-.026.295-.231.5-.489.5H4.254a.494.494 0 0 1-.488-.5v-3.53c0-.275.22-.499.488-.499h.068l-3.19-3.281a2.15 2.15 0 0 1-.616-1.526v-6.37c0-.77.61-1.396 1.36-1.396.684 0 1.261.522 1.34 1.213l.428 3.323c.391.022.752.18 1.025.45l1.764 1.815c.189.195.456.32.716.336.22.014.425.048.623.08l.205.033c1.906.384 3.285 2.14 3.285 4.178v1.15ZM1.474 7.77v6.37c0 .321.113.608.328.829l3.36 3.456c.128.133.224.304.291.522h4.833v-1.108c0-1.553-1.059-2.9-2.516-3.203a4.7 4.7 0 0 0-.728-.11 2.077 2.077 0 0 1-1.316-.635l-1.761-1.812a.607.607 0 0 0-.533-.173.448.448 0 0 1-.117.036.425.425 0 0 0-.108.054.533.533 0 0 0-.19.388c-.014.16.045.31.16.412l2.838 2.92a.492.492 0 0 1 0 .697.48.48 0 0 1-.688 0l-2.833-2.915a1.56 1.56 0 0 1 .118-2.274.41.41 0 0 1 .091-.056L2.242 7.71a.388.388 0 0 0-.385-.34c-.204 0-.383.186-.383.399Zm9.229 12.174h-5.96v2.535h5.96v-2.535Zm11.402-13.57c.75 0 1.36.626 1.36 1.396v6.37c0 .566-.224 1.123-.617 1.526l-3.19 3.281h.068c.27 0 .488.224.488.5v3.53a.494.494 0 0 1-.488.499h-6.9a.494.494 0 0 1-.489-.5v-3.53c0-.238.164-.437.382-.487v-1.12c0-2.014 1.378-3.77 3.277-4.176.262-.058.543-.097.834-.115.269-.032.521-.15.722-.339l1.757-1.809c.273-.28.634-.443 1.024-.466l.431-3.349c.08-.69.656-1.211 1.34-1.211ZM18.8 18.423l3.36-3.455c.209-.215.328-.517.328-.83v-6.37c0-.212-.18-.398-.384-.398a.389.389 0 0 0-.385.341l-.45 3.488a.46.46 0 0 1 .099.061 1.562 1.562 0 0 1 .118 2.275l-2.833 2.914a.48.48 0 0 1-.689 0 .493.493 0 0 1 0-.697l2.833-2.914a.61.61 0 0 0 .165-.418c-.01-.09-.048-.278-.187-.387-.202-.178-.528-.14-.763.085l-1.759 1.809a2.16 2.16 0 0 1-1.31.636 4.7 4.7 0 0 0-.73.109c-1.46.308-2.52 1.655-2.52 3.204v1.07h4.815c.067-.217.162-.39.292-.522Zm-5.487 4.055h5.924v-2.535h-5.924v2.535Zm5.443-15.186a6.784 6.784 0 0 1-6.776 6.776 6.784 6.784 0 0 1-6.776-6.776A6.784 6.784 0 0 1 11.98.516a6.784 6.784 0 0 1 6.776 6.776Zm-.985 0c0-3.197-2.598-5.797-5.791-5.797-3.193 0-5.791 2.6-5.791 5.797 0 3.197 2.598 5.797 5.79 5.797 3.194 0 5.792-2.6 5.792-5.797Zm-6.2-1.192c-.184 0-.328.15-.328.342 0 .192.144.342.329.342h.817c.72 0 1.305.601 1.305 1.34 0 .708-.538 1.289-1.216 1.336v.756c0 .284-.21.498-.489.498a.494.494 0 0 1-.488-.498v-.753h-.747a.494.494 0 0 1-.488-.5c0-.274.22-.498.488-.498h1.635c.185 0 .33-.15.33-.341a.332.332 0 0 0-.33-.343h-.817c-.72 0-1.306-.6-1.306-1.34 0-.713.548-1.298 1.235-1.337v-.736c0-.275.22-.498.488-.498.27 0 .489.223.489.498v.735h.727c.27 0 .489.223.489.498a.494.494 0 0 1-.489.5h-1.634Z"></path></svg>