<svg xmlns="http://www.w3.org/2000/svg" role="img" viewBox="0 0 24 24" preserveAspectRatio="xMidYMid meet"><title id="titleIconMoneyOut">Money Out</title><desc id="descIconMoneyOut">Money Out</desc>  <path fill-rule="evenodd" d="M11.4589146,15.0489047 C10.5751787,14.8394263 9.92313923,14.1285069 9.92313923,13.2852129 L11.00315,13.2852129 C11.00315,13.6902169 11.4589146,14.0315003 11.99892,14.0315003 C12.5400054,14.0315003 12.99685,13.6902169 12.99685,13.2852129 C12.99685,12.8175682 12.6242462,12.5400054 11.99892,12.5400054 C10.5646656,12.5400054 9.92313923,11.6230762 9.92313923,10.7137071 C9.92313923,9.87131698 10.5751787,9.160545 11.4589146,8.95109063 L11.4589146,8.29124291 L12.5389254,8.29124291 L12.5389254,8.95096667 C13.4238071,9.16026445 14.0768608,9.87115072 14.0768608,10.7137071 L12.99685,10.7137071 C12.99685,10.3097831 12.5400054,9.96849968 11.99892,9.96849968 C11.4589146,9.96849968 11.00315,10.3097831 11.00315,10.7137071 C11.00315,11.3627936 11.6273963,11.4599946 11.99892,11.4599946 C13.2225722,11.4599946 14.0768608,12.2106021 14.0768608,13.2852129 C14.0768608,14.1286733 13.4238071,14.8397069 12.5389254,15.0490287 L12.5389254,15.7076771 L11.4589146,15.7076771 L11.4589146,15.0489047 Z M2.06714067,12.5389254 L2.80478805,13.2765728 L2.04122041,14.0401404 L8.8817842e-16,11.99892 L2.04122041,9.95877959 L2.80478805,10.7223472 L2.06759753,11.4589146 L5.08361084,11.4589146 L5.08361084,12.5389254 L2.06714067,12.5389254 Z M4.9759359,19.7857979 L6.01782018,19.7857979 L6.01782018,20.8658087 L3.13203132,20.8658087 L3.13203132,17.9800198 L4.21204212,17.9800198 L4.21204212,19.0225562 L6.34506345,16.8902889 L7.10863109,17.6538565 L4.9759359,19.7857979 Z M4.9759359,4.21312213 L7.10863109,6.34506345 L6.34506345,7.10863109 L4.21204212,4.97636374 L4.21204212,6.01890019 L3.13203132,6.01890019 L3.13203132,3.13311133 L6.01782018,3.13311133 L6.01782018,4.21312213 L4.9759359,4.21312213 Z M11.99892,7.23283233 C9.37125371,7.23283233 7.23283233,9.37125371 7.23283233,12 C7.23283233,14.6276663 9.37125371,16.7660877 11.99892,16.7660877 C14.6276663,16.7660877 16.7660877,14.6276663 16.7660877,12 C16.7660877,9.37125371 14.6276663,7.23283233 11.99892,7.23283233 Z M11.99892,17.8460985 C8.77616776,17.8460985 6.15282153,15.2227522 6.15282153,12 C6.15282153,8.77616776 8.77616776,6.15282153 11.99892,6.15282153 C15.2227522,6.15282153 17.8460985,8.77616776 17.8460985,12 C17.8460985,15.2227522 15.2227522,17.8460985 11.99892,17.8460985 Z M21.9337723,12.5389254 L18.9163892,12.5389254 L18.9163892,11.4589146 L21.9333162,11.4589146 L21.197372,10.7223472 L21.9609396,9.95877959 L24,11.99892 L21.9609396,14.0401404 L21.197372,13.2765728 L21.9337723,12.5389254 Z M19.7857979,4.97668977 L17.6538565,7.10863109 L16.8902889,6.34506345 L19.0222302,4.21312213 L17.9800198,4.21312213 L17.9800198,3.13311133 L20.8658087,3.13311133 L20.8658087,6.01890019 L19.7857979,6.01890019 L19.7857979,4.97668977 Z M12.5400054,2.06714067 L12.5400054,5.08361084 L11.4599946,5.08361084 L11.4599946,2.0666842 L10.7223472,2.80370804 L9.95877959,2.0401404 L12,1.77635684e-15 L14.0401404,2.0401404 L13.2765728,2.80370804 L12.5400054,2.06714067 Z M12.5400054,21.9328593 L13.2765728,21.196292 L14.0401404,21.9609396 L12,24 L9.95877959,21.9609396 L10.7223472,21.196292 L11.4599946,21.9333158 L11.4599946,18.9163892 L12.5400054,18.9163892 L12.5400054,21.9328593 Z M19.7857979,19.0222302 L19.7857979,17.9800198 L20.8658087,17.9800198 L20.8658087,20.8658087 L17.9800198,20.8658087 L17.9800198,19.7857979 L19.0222302,19.7857979 L16.8902889,17.6538565 L17.6538565,16.8902889 L19.7857979,19.0222302 Z"></path></svg>