<svg xmlns="http://www.w3.org/2000/svg" role="img" viewBox="0 0 24 24" preserveAspectRatio="xMidYMid meet"><title id="titleIconStockGraphUp">Stocks</title><desc id="descIconStockGraphUp">Stocks</desc>  <path d="M5.5,10 L0.5,10 C0.2,10 0,10.2 0,10.5 L0,21.5 C0,21.8 0.2,22 0.5,22 L5.5,22 C5.8,22 6,21.8 6,21.5 L6,10.5 C6,10.2 5.8,10 5.5,10 Z M5,21 L1,21 L1,11 L5,11 L5,21 Z M14.5,3 L9.5,3 C9.2,3 9,3.2 9,3.5 L9,21.5 C9,21.8 9.2,22 9.5,22 L14.5,22 C14.8,22 15,21.8 15,21.5 L15,3.5 C15,3.2 14.8,3 14.5,3 Z M14,21 L10,21 L10,4 L14,4 L14,21 Z M23.5,12 L18.5,12 C18.2,12 18,12.2 18,12.5 L18,21.5 C18,21.8 18.2,22 18.5,22 L23.5,22 C23.8,22 24,21.8 24,21.5 L24,12.5 C24,12.2 23.8,12 23.5,12 Z M23,21 L19,21 L19,13 L23,13 L23,21 Z"></path></svg>